<svg width="24" height="27" viewBox="0 0 24 27" fill="none" xmlns="http://www.w3.org/2000/svg">
<path d="M1.40566 26.5106C0.838615 26.5106 0.32432 26.1677 0.108052 25.6429C-0.110854 25.118 0.0104674 24.5114 0.411354 24.1106L8.05986 16.4621C8.61108 15.9135 9.49988 15.9135 10.0485 16.4621C10.5997 17.0106 10.5997 17.9021 10.0485 18.4507L2.39996 26.0992C2.13886 26.3629 1.78017 26.5106 1.40566 26.5106Z" fill="#ED952B"/>
<path d="M23.9234 0.566348L3.9239 20.5632C-0.253767 16.3856 -0.253767 9.61004 3.9239 5.42974C9.86863 -0.514992 23.9234 0.566348 23.9234 0.566348Z" fill="#FEC86E"/>
<path d="M19.0568 20.5625C14.8792 24.7428 8.10364 24.7428 3.92334 20.5625L23.9229 0.565575C23.9229 0.565575 25.0042 14.6177 19.0568 20.5625Z" fill="#ED952B"/>
</svg>
